<svg 
    id="Capa_1" 
    enable-background="new 0 0 1200 1200"
    width="100%"
    height="auto"
    viewBox="-350 -350 1200 1200"
    preserveAspectRatio="xMidYMid meet"
    xmlns="http://www.w3.org/2000/svg">
    <g fill="#e4e3e1"><path d="m409.296875 177.519531c-4.265625 0-7.726563-3.460937-7.726563-7.730469v-87.53125c0-9.839843-8.003906-17.847656-17.847656-17.847656h-186.5625c-4.269531 0-7.726562-3.457031-7.726562-7.726562 0-4.265625 3.457031-7.726563 7.726562-7.726563h186.566406c18.359376 0 33.300782 14.9375 33.300782 33.300781v87.53125c0 4.269532-3.460938 7.730469-7.730469 7.730469zm0 0"/><path d="m383.726562 391.632812h-186.566406c-4.269531 0-7.726562-3.460937-7.726562-7.726562 0-4.269531 3.457031-7.726562 7.726562-7.726562h186.566406c9.839844 0 17.84375-8.007813 17.84375-17.847657v-89.59375c0-4.269531 3.460938-7.726562 7.730469-7.726562 4.265625 0 7.726563 3.457031 7.726563 7.726562v89.59375c0 18.363281-14.941406 33.300781-33.300782 33.300781zm0 0"/><path d="m102.699219 342.378906c-4.265625 0-7.726563-3.457031-7.726563-7.726562v-66.621094c0-4.269531 3.460938-7.726562 7.726563-7.726562 4.269531 0 7.730469 3.457031 7.730469 7.726562v66.621094c0 4.269531-3.460938 7.726562-7.730469 7.726562zm0 0"/><path d="m102.699219 178.914062c-4.265625 0-7.726563-3.460937-7.726563-7.726562v-66.625c0-4.265625 3.460938-7.726562 7.726563-7.726562 4.269531 0 7.730469 3.460937 7.730469 7.726562v66.625c0 4.265625-3.460938 7.726562-7.730469 7.726562zm0 0"/></g><path d="m195.730469 0h-186.058594c-5.34375 0-9.671875 4.328125-9.671875 9.671875v94.027344c0 5.34375 4.328125 9.671875 9.671875 9.671875h186.058594c5.339843 0 9.671875-4.328125 9.671875-9.671875v-94.027344c0-5.34375-4.332032-9.671875-9.671875-9.671875zm0 0" fill="#4b98d4"/><path d="m195.730469 163.609375h-186.058594c-5.34375 0-9.671875 4.332031-9.671875 9.671875v94.03125c0 5.339844 4.328125 9.667969 9.671875 9.667969h186.058594c5.339843 0 9.671875-4.328125 9.671875-9.667969v-94.03125c0-5.34375-4.332032-9.671875-9.671875-9.671875zm0 0" fill="#9ad14b"/><path d="m502.328125 163.609375h-186.058594c-5.339843 0-9.671875 4.332031-9.671875 9.671875v94.03125c0 5.339844 4.328125 9.667969 9.671875 9.667969h186.058594c5.34375 0 9.671875-4.328125 9.671875-9.667969v-94.03125c0-5.34375-4.328125-9.671875-9.671875-9.671875zm0 0" fill="#ed5454"/><path d="m195.730469 327.21875h-186.058594c-5.34375 0-9.671875 4.332031-9.671875 9.671875v94.03125c0 5.339844 4.328125 9.667969 9.671875 9.667969h186.058594c5.339843 0 9.671875-4.328125 9.671875-9.667969v-94.03125c0-5.339844-4.332032-9.671875-9.671875-9.671875zm0 0" fill="#ffc964"/><path d="m20.667969 103.699219v-94.027344c0-5.34375 4.332031-9.671875 9.671875-9.671875h-20.667969c-5.34375 0-9.671875 4.328125-9.671875 9.671875v94.03125c0 5.339844 4.328125 9.667969 9.671875 9.667969h20.667969c-5.339844 0-9.671875-4.328125-9.671875-9.671875zm0 0" fill="#2472b2"/><path d="m20.667969 267.3125v-94.03125c0-5.34375 4.332031-9.671875 9.671875-9.671875h-20.667969c-5.34375 0-9.671875 4.328125-9.671875 9.671875v94.03125c0 5.339844 4.328125 9.667969 9.671875 9.667969h20.667969c-5.339844 0-9.671875-4.328125-9.671875-9.667969zm0 0" fill="#76ab29"/><path d="m327.269531 267.3125v-94.03125c0-5.34375 4.328125-9.671875 9.667969-9.671875h-20.667969c-5.339843 0-9.671875 4.328125-9.671875 9.671875v94.03125c0 5.339844 4.332032 9.667969 9.671875 9.667969h20.667969c-5.339844 0-9.667969-4.328125-9.667969-9.667969zm0 0" fill="#ea3f3f"/><path d="m20.667969 430.921875v-94.03125c0-5.339844 4.332031-9.671875 9.671875-9.671875h-20.667969c-5.34375 0-9.671875 4.332031-9.671875 9.671875v94.03125c0 5.339844 4.328125 9.667969 9.671875 9.667969h20.667969c-5.339844 0-9.671875-4.328125-9.671875-9.667969zm0 0" fill="#f3a334"/><path d="m161.71875 48.324219h-118.039062c-4.265626 0-7.726563-3.460938-7.726563-7.726563 0-4.269531 3.460937-7.730468 7.726563-7.730468h118.039062c4.269531 0 7.730469 3.460937 7.730469 7.730468 0 4.265625-3.460938 7.726563-7.730469 7.726563zm0 0" fill="#2472b2"/><path d="m161.71875 80.5h-118.039062c-4.265626 0-7.726563-3.457031-7.726563-7.726562 0-4.265626 3.460937-7.726563 7.726563-7.726563h118.039062c4.269531 0 7.730469 3.460937 7.730469 7.726563 0 4.269531-3.460938 7.726562-7.730469 7.726562zm0 0" fill="#2472b2"/><path d="m161.71875 211.933594h-118.039062c-4.265626 0-7.726563-3.460938-7.726563-7.726563 0-4.269531 3.460937-7.726562 7.726563-7.726562h118.039062c4.269531 0 7.730469 3.457031 7.730469 7.726562 0 4.265625-3.460938 7.726563-7.730469 7.726563zm0 0" fill="#76ab29"/><path d="m161.71875 244.113281h-118.039062c-4.265626 0-7.726563-3.460937-7.726563-7.730469 0-4.265624 3.460937-7.726562 7.726563-7.726562h118.039062c4.269531 0 7.730469 3.460938 7.730469 7.726562 0 4.269532-3.460938 7.730469-7.730469 7.730469zm0 0" fill="#76ab29"/><path d="m468.320312 211.933594h-118.039062c-4.269531 0-7.730469-3.460938-7.730469-7.726563 0-4.269531 3.460938-7.726562 7.730469-7.726562h118.039062c4.265626 0 7.726563 3.457031 7.726563 7.726562 0 4.265625-3.460937 7.726563-7.726563 7.726563zm0 0" fill="#ea3f3f"/><path d="m468.320312 244.113281h-118.039062c-4.269531 0-7.730469-3.460937-7.730469-7.730469 0-4.265624 3.460938-7.726562 7.730469-7.726562h118.039062c4.265626 0 7.726563 3.460938 7.726563 7.726562 0 4.269532-3.460937 7.730469-7.726563 7.730469zm0 0" fill="#ea3f3f"/><path d="m161.71875 375.542969h-118.039062c-4.265626 0-7.726563-3.457031-7.726563-7.726563 0-4.265625 3.460937-7.726562 7.726563-7.726562h118.039062c4.269531 0 7.730469 3.460937 7.730469 7.726562 0 4.269532-3.460938 7.726563-7.730469 7.726563zm0 0" fill="#f3a334"/><path d="m161.71875 407.722656h-118.039062c-4.265626 0-7.726563-3.460937-7.726563-7.730468 0-4.265626 3.460937-7.726563 7.726563-7.726563h118.039062c4.269531 0 7.730469 3.460937 7.730469 7.726563 0 4.269531-3.460938 7.730468-7.730469 7.730468zm0 0" fill="#f3a334"/>
</svg>